<?xml version="1.0" encoding="UTF-8"?>
<svg width="752pt" height="752pt" version="1.1" viewBox="0 0 752 752" xmlns="http://www.w3.org/2000/svg">
 <path d="m539.39 174.73h-326.77c-20.836 0-37.887 17.051-37.887 37.887v326.77c0 20.836 17.051 37.887 37.887 37.887h326.77c20.836 0 37.887-17.051 37.887-37.887v-326.77c0-20.84-17.051-37.887-37.887-37.887zm-46.59 317.73h-233.58c-13.09 0-23.688-10.602-23.688-23.684 0-13.086 10.598-23.688 23.688-23.688h233.58c13.082 0 23.68 10.602 23.68 23.688 0.003906 13.078-10.598 23.684-23.676 23.684zm0-92.77h-233.58c-13.09 0-23.688-10.609-23.688-23.688 0-13.082 10.598-23.688 23.688-23.688h233.58c13.082 0 23.68 10.609 23.68 23.688 0.003906 13.078-10.598 23.688-23.676 23.688zm0-92.777h-233.58c-13.09 0-23.688-10.602-23.688-23.688 0-13.082 10.598-23.684 23.688-23.684h233.58c13.082 0 23.68 10.602 23.68 23.684 0.003906 13.086-10.598 23.688-23.676 23.688z"/>
</svg>
